<svg width="90" height="175" viewBox="0 0 90 175" fill="none" xmlns="http://www.w3.org/2000/svg">
<path d="M75.7339 87.2753C75.7339 94.7922 81.9286 100.87 89.5616 100.87" stroke="#CECECE" stroke-miterlimit="10"/>
<path d="M65.1108 87.2755C65.1108 100.56 76.062 111.327 89.5616 111.327" stroke="#CECECE" stroke-miterlimit="10"/>
<path d="M54.4877 87.2711C54.4877 106.324 70.1953 121.767 89.5616 121.767" stroke="#CECECE" stroke-miterlimit="10"/>
<path d="M43.8645 87.2745C43.8645 112.095 64.3286 132.215 89.5616 132.215" stroke="#CECECE" stroke-miterlimit="10"/>
<path d="M33.2414 87.2794C33.2414 117.868 58.4493 142.664 89.5616 142.664" stroke="#CECECE" stroke-miterlimit="10"/>
<path d="M22.6183 87.283C22.6183 123.64 52.5826 153.112 89.5616 153.112" stroke="#CECECE" stroke-miterlimit="10"/>
<path d="M11.9952 87.2679C11.9952 129.393 46.7159 163.541 89.5616 163.541" stroke="#CECECE" stroke-miterlimit="10"/>
<path d="M1.35943 87.282C1.35943 135.175 40.8492 174 89.5616 174" stroke="#CECECE" stroke-miterlimit="10"/>
<path d="M89.571 74.1203C81.9254 74.1203 75.7433 80.2108 75.7433 87.7154L75.7433 87.7278" stroke="#CECECE" stroke-miterlimit="10"/>
<path d="M89.57 63.6814C76.0577 63.6814 65.1066 74.4482 65.1066 87.7208L65.1066 87.7332" stroke="#CECECE" stroke-miterlimit="10"/>
<path d="M89.5721 53.2329C70.1931 53.2329 54.4855 68.6761 54.4855 87.7166L54.4855 87.729" stroke="#CECECE" stroke-miterlimit="10"/>
<path d="M89.5721 42.7844C64.3264 42.7844 43.8624 62.9041 43.8624 87.7125L43.8624 87.7249" stroke="#CECECE" stroke-miterlimit="10"/>
<path d="M89.57 32.3455C58.4576 32.3455 33.2372 57.1291 33.2372 87.7179L33.2372 87.7303" stroke="#CECECE" stroke-miterlimit="10"/>
<path d="M89.5723 21.9065C52.5932 21.9065 22.6163 51.3665 22.6163 87.7233L22.6163 87.7357" stroke="#CECECE" stroke-miterlimit="10"/>
<path d="M89.5724 11.4485C46.7266 11.4485 11.9933 45.5849 11.9933 87.7097L11.9933 87.7221" stroke="#CECECE" stroke-miterlimit="10"/>
<path d="M89.5705 0.999935C40.8581 0.999929 1.36828 39.8252 1.36827 87.7179L1.36827 87.7303" stroke="#CECECE" stroke-miterlimit="10"/>
</svg>
