<svg width="258" height="272" viewBox="0 0 258 272" fill="none" xmlns="http://www.w3.org/2000/svg">
<path d="M257.958 146.949L165.189 146.949C158.998 146.949 153.992 142.018 153.992 135.941M153.992 135.941L153.992 135.931M153.992 135.941L153.992 130.226" stroke="#CECECE" stroke-miterlimit="10"/>
<path d="M257.958 155.409L165.189 155.409C154.248 155.409 145.38 146.691 145.38 135.944M145.38 135.944L145.38 135.934M145.38 135.944L145.38 130.229" stroke="#CECECE" stroke-miterlimit="10"/>
<path d="M257.958 163.855L165.189 163.855C149.497 163.855 136.779 151.35 136.779 135.933M136.779 135.933L136.779 135.923M136.779 135.933L136.779 130.218" stroke="#CECECE" stroke-miterlimit="10"/>
<path d="M257.958 172.322L165.189 172.322C144.747 172.322 128.177 156.031 128.177 135.943M128.177 135.943L128.177 135.933M128.177 135.943L128.177 130.228" stroke="#CECECE" stroke-miterlimit="10"/>
<path d="M257.958 180.774L165.189 180.774C139.997 180.774 119.575 160.707 119.575 135.939M119.575 135.939L119.575 135.928M119.575 135.939L119.575 130.224" stroke="#CECECE" stroke-miterlimit="10"/>
<path d="M257.958 189.235L165.189 189.235C135.246 189.235 110.974 165.381 110.974 135.942M110.974 135.942L110.974 135.932M110.974 135.942L110.974 130.228" stroke="#CECECE" stroke-miterlimit="10"/>
<path d="M257.958 197.687L165.189 197.687C130.496 197.687 102.372 170.047 102.372 135.938M102.372 135.938L102.372 135.928M102.372 135.938L102.372 130.223" stroke="#CECECE" stroke-miterlimit="10"/>
<path d="M257.958 206.156L165.189 206.156C125.746 206.156 93.7705 174.718 93.7705 135.939M93.7705 135.939L93.7705 135.929M93.7705 135.939L93.7705 130.224" stroke="#CECECE" stroke-miterlimit="10"/>
<path d="M169.5 146.949L169.5 141.425C169.5 135.339 164.484 130.417 158.303 130.417L3.57574 130.417" stroke="#CECECE" stroke-miterlimit="10"/>
<path d="M178.1 146.949L178.1 141.425C178.1 130.668 169.233 121.95 158.302 121.95L3.57452 121.95" stroke="#CECECE" stroke-miterlimit="10"/>
<path d="M186.704 146.949L186.704 141.425C186.704 125.998 173.985 113.493 158.304 113.493L3.57664 113.493" stroke="#CECECE" stroke-miterlimit="10"/>
<path d="M195.304 146.949L195.304 141.425C195.304 121.327 178.734 105.036 158.303 105.036L3.57538 105.036" stroke="#CECECE" stroke-miterlimit="10"/>
<path d="M203.907 146.949L203.907 141.425C203.907 116.657 183.495 96.5794 158.303 96.5794L3.57599 96.5794" stroke="#CECECE" stroke-miterlimit="10"/>
<path d="M212.507 146.949L212.507 141.425C212.507 111.987 188.245 88.1225 158.302 88.1225L3.5749 88.1225" stroke="#CECECE" stroke-miterlimit="10"/>
<path d="M221.109 146.949L221.109 141.425C221.109 107.316 192.996 79.6656 158.303 79.6656L3.5754 79.6656" stroke="#CECECE" stroke-miterlimit="10"/>
<path d="M229.721 146.949L229.721 141.425C229.721 102.646 197.746 71.2087 158.303 71.2087L3.57542 71.2087" stroke="#CECECE" stroke-miterlimit="10"/>
<path d="M82.6142 60.2084C76.4235 60.2084 71.4178 65.1399 71.4178 71.2164L71.4178 71.2264" stroke="#CECECE" stroke-miterlimit="10"/>
<path d="M82.6142 51.7515C71.6731 51.7515 62.8059 60.4695 62.8059 71.2164L62.8059 71.2264" stroke="#CECECE" stroke-miterlimit="10"/>
<path d="M82.6142 43.2946C66.9228 43.2946 54.2042 55.7991 54.2042 71.2164L54.2042 71.2264" stroke="#CECECE" stroke-miterlimit="10"/>
<path d="M82.6142 34.8377C62.1725 34.8377 45.6026 51.1287 45.6026 71.2164L45.6026 71.2264" stroke="#CECECE" stroke-miterlimit="10"/>
<path d="M82.6142 26.3808C57.4222 26.3808 37.001 46.4483 37.001 71.2164L37.001 71.2264" stroke="#CECECE" stroke-miterlimit="10"/>
<path d="M82.6142 17.9239C52.6719 17.9239 28.3993 41.7779 28.3993 71.2164L28.3993 71.2264" stroke="#CECECE" stroke-miterlimit="10"/>
<path d="M82.6142 9.46697C47.9216 9.46697 19.7977 37.1076 19.7977 71.2164L19.7977 71.2264" stroke="#CECECE" stroke-miterlimit="10"/>
<path d="M82.6142 1.00004C43.1713 1.00003 11.196 32.4372 11.196 71.2164L11.196 71.2264" stroke="#CECECE" stroke-miterlimit="10"/>
<path d="M82.6149 60.2084C88.8057 60.2084 93.8114 65.1399 93.8114 71.2164L93.8114 71.2264" stroke="#CECECE" stroke-miterlimit="10"/>
<path d="M82.6133 51.7515C93.5543 51.7515 102.422 60.4695 102.422 71.2164L102.422 71.2264" stroke="#CECECE" stroke-miterlimit="10"/>
<path d="M82.6154 43.2946C98.3067 43.2946 111.025 55.7991 111.025 71.2164L111.025 71.2264" stroke="#CECECE" stroke-miterlimit="10"/>
<path d="M82.6143 34.8377C103.056 34.8377 119.626 51.1287 119.626 71.2164L119.626 71.2264" stroke="#CECECE" stroke-miterlimit="10"/>
<path d="M82.6164 26.3808C107.808 26.3808 128.23 46.4483 128.23 71.2164L128.23 71.2264" stroke="#CECECE" stroke-miterlimit="10"/>
<path d="M82.6152 17.9239C112.558 17.9239 136.83 41.7779 136.83 71.2164L136.83 71.2264" stroke="#CECECE" stroke-miterlimit="10"/>
<path d="M82.6141 9.46688C117.307 9.46688 145.431 37.1075 145.431 71.2163L145.431 71.2263" stroke="#CECECE" stroke-miterlimit="10"/>
<path d="M82.6147 1.00003C122.058 1.00003 154.033 32.4372 154.033 71.2164L154.033 71.2264" stroke="#CECECE" stroke-miterlimit="10"/>
<path d="M0.000723789 211.863C6.19146 211.863 11.1972 206.931 11.1972 200.855L11.1972 200.845" stroke="#CECECE" stroke-miterlimit="10"/>
<path d="M0.00233498 220.315C10.9434 220.315 19.8106 211.597 19.8106 200.85L19.8106 200.84" stroke="#CECECE" stroke-miterlimit="10"/>
<path d="M0.00133428 228.776C15.6927 228.776 28.4113 216.271 28.4113 200.854L28.4113 200.844" stroke="#CECECE" stroke-miterlimit="10"/>
<path d="M0.00010039 237.236C20.4418 237.236 37.0117 220.945 37.0117 200.857L37.0117 200.847" stroke="#CECECE" stroke-miterlimit="10"/>
<path d="M0.00221148 245.689C25.1942 245.689 45.6154 225.621 45.6154 200.853L45.6154 200.843" stroke="#CECECE" stroke-miterlimit="10"/>
<path d="M0.00107644 254.141C29.9434 254.141 54.216 230.287 54.216 200.849L54.216 200.839" stroke="#CECECE" stroke-miterlimit="10"/>
<path d="M7.17289e-05 262.61C34.6927 262.61 62.8166 234.969 62.8166 200.86L62.8166 200.85" stroke="#CECECE" stroke-miterlimit="10"/>
<path d="M0.0020724 271.069C39.445 271.069 71.4203 239.632 71.4203 200.853L71.4203 200.843" stroke="#CECECE" stroke-miterlimit="10"/>
<path d="M71.4203 130.225L71.4203 206.357" stroke="#CECECE" stroke-width="0.62" stroke-miterlimit="10"/>
<path d="M62.8068 130.225L62.8068 206.357" stroke="#CECECE" stroke-width="0.62" stroke-miterlimit="10"/>
<path d="M54.1966 130.225L54.1966 206.357" stroke="#CECECE" stroke-width="0.62" stroke-miterlimit="10"/>
<path d="M45.5816 130.225L45.5816 206.357" stroke="#CECECE" stroke-width="0.62" stroke-miterlimit="10"/>
<path d="M36.9713 130.225L36.9713 206.357" stroke="#CECECE" stroke-width="0.62" stroke-miterlimit="10"/>
<path d="M28.3579 130.225L28.3579 206.357" stroke="#CECECE" stroke-width="0.62" stroke-miterlimit="10"/>
<path d="M19.7477 130.225L19.7477 206.357" stroke="#CECECE" stroke-width="0.62" stroke-miterlimit="10"/>
<path d="M11.1374 130.225L11.1374 206.357" stroke="#CECECE" stroke-width="0.62" stroke-miterlimit="10"/>
</svg>
